<?xml version="1.0" standalone="no"?>
<!DOCTYPE svg PUBLIC "-//W3C//DTD SVG 20010904//EN"
 "http://www.w3.org/TR/2001/REC-SVG-20010904/DTD/svg10.dtd">
<svg version="1.0" xmlns="http://www.w3.org/2000/svg"
 width="400.000000pt" height="400.000000pt" viewBox="0 0 400.000000 400.000000"
 preserveAspectRatio="xMidYMid meet">
<metadata>
Created by potrace 1.11, written by Peter Selinger 2001-2013
</metadata>
<g transform="translate(0.000000,400.000000) scale(0.100000,-0.100000)"
fill="#000000" stroke="none">
<path d="M1777 3690 c-98 -21 -168 -51 -207 -89 -15 -14 -64 -69 -110 -121
-47 -52 -87 -97 -90 -100 -4 -3 -40 -45 -81 -95 -178 -215 -270 -400 -349
-699 -48 -183 -129 -629 -130 -721 -1 -22 -1 -85 -2 -140 0 -55 -1 -109 -1
-120 -2 -73 79 -475 133 -659 49 -166 110 -317 160 -395 77 -119 220 -209 405
-255 132 -32 186 -39 335 -39 281 1 507 46 705 142 195 95 298 196 408 402 97
179 153 366 202 678 27 168 27 174 10 188 -14 9 -15 13 -4 13 12 0 12 2 -1 10
-8 5 -10 10 -4 10 7 0 9 15 7 38 -2 20 -3 43 -3 50 3 66 5 82 11 82 3 0 3 17
-1 38 -8 43 -76 313 -90 357 -125 404 -148 472 -232 670 -72 170 -149 316
-257 492 -73 117 -118 164 -196 202 -151 74 -428 102 -618 61z"/>
<path d="M791 1764 c0 -11 3 -14 6 -6 3 7 2 16 -1 19 -3 4 -6 -2 -5 -13z"/>
<path d="M791 1674 c0 -11 3 -14 6 -6 3 7 2 16 -1 19 -3 4 -6 -2 -5 -13z"/>
</g>
</svg>
